<svg width="78" height="78" viewBox="0 0 78 78" fill="none" xmlns="http://www.w3.org/2000/svg">
<path d="M24.6703 13.2605L32.1969 18.7074L29.3094 27.5386C29.1172 28.1246 29.325 28.7621 29.825 29.1261C30.075 29.3074 30.3687 29.3996 30.6609 29.3996C30.9531 29.3996 31.2453 29.3089 31.4937 29.1277L39 23.6511L46.5062 29.1261C47.0047 29.4902 47.675 29.4886 48.175 29.1261C48.675 28.7636 48.8828 28.1246 48.6906 27.5386L45.8031 18.7089L53.3297 13.2621C53.8297 12.8996 54.0375 12.2621 53.8469 11.6746C53.6562 11.0871 53.114 10.6933 52.4984 10.6933H52.4953L43.2047 10.7105L40.35 1.86831C40.1609 1.28081 39.6172 0.885498 39 0.885498C38.3812 0.885498 37.839 1.28081 37.65 1.86831L34.7953 10.7105L25.5047 10.6933H25.5015C24.8859 10.6933 24.3437 11.0871 24.1531 11.6746C23.9625 12.2605 24.1703 12.8996 24.6703 13.2605ZM34.8969 12.273H34.9C35.5187 12.273 36.0609 11.8777 36.25 11.2902L39 2.77144L41.75 11.2902C41.9406 11.8777 42.4828 12.273 43.1015 12.273H43.1047L52.0562 12.2558L44.8047 17.5027C44.3031 17.8652 44.0953 18.5058 44.2875 19.0933L47.0703 27.6011L39.839 22.3261C39.339 21.9621 38.6672 21.9621 38.1656 22.3261L30.9344 27.6011L33.7172 19.0933C33.9094 18.5043 33.7015 17.8652 33.2 17.5027L25.9484 12.2558L34.8969 12.273ZM51.9484 19.1871C51.3812 19.1871 50.8812 19.5496 50.7062 20.0902C50.5297 20.6324 50.7219 21.2199 51.1828 21.5527L57.3078 25.9839L54.9578 33.1699C54.7812 33.709 54.9719 34.2965 55.4328 34.6324C55.8937 34.9668 56.5109 34.9668 56.9703 34.6324L63.0781 30.1777L69.1859 34.6324C69.4156 34.7996 69.6844 34.8824 69.9531 34.8824C70.2219 34.8824 70.4922 34.798 70.7234 34.6308C71.1844 34.2965 71.375 33.709 71.1984 33.1683L68.8484 25.9839L74.9734 21.5527C75.4344 21.2199 75.625 20.6308 75.45 20.0902C75.275 19.5496 74.775 19.1871 74.2078 19.1871H74.2047L66.6453 19.2011L64.3234 12.0074C64.1484 11.4652 63.6484 11.1027 63.0797 11.1027C62.5109 11.1027 62.0109 11.4668 61.8359 12.0074L59.514 19.2011L51.9547 19.1871C51.95 19.1871 51.9484 19.1871 51.9484 19.1871ZM59.6937 20.7652H59.6969C60.2656 20.7652 60.7656 20.4011 60.9406 19.8589L63.0765 13.2402L65.2125 19.8589C65.3875 20.4011 65.8875 20.7652 66.4562 20.7652H66.4594L73.4141 20.7511L67.7797 24.8277C67.3172 25.1621 67.1266 25.7511 67.3031 26.2933L69.4656 32.9043L63.8469 28.8058C63.6172 28.6371 63.3469 28.5543 63.0765 28.5543C62.8062 28.5543 62.5359 28.6386 62.3062 28.8058L56.6875 32.9043L58.85 26.2933C59.0266 25.7511 58.8359 25.1621 58.3734 24.8277L52.739 20.7511L59.6937 20.7652ZM3.02966 21.5543L9.15466 25.9855L6.80466 33.1699C6.6281 33.709 6.81872 34.2965 7.27966 34.6324C7.7406 34.9668 8.35779 34.9668 8.81716 34.6324L14.925 30.1777L21.0312 34.6324C21.2609 34.7996 21.5297 34.8824 21.7984 34.8824C22.0672 34.8824 22.3375 34.798 22.5687 34.6308C23.0297 34.2965 23.2203 33.709 23.0437 33.1683L20.6937 25.9824L26.8187 21.5511C27.2797 21.2183 27.4703 20.6293 27.2953 20.0886C27.1203 19.548 26.6203 19.1855 26.0531 19.1855H26.05L18.4906 19.1996L16.1687 12.0058C15.9937 11.4636 15.4937 11.1011 14.925 11.1011C14.3562 11.1011 13.8562 11.4652 13.6812 12.0058L11.3593 19.1996L3.79997 19.1855H3.79685C3.22966 19.1855 2.72966 19.548 2.55466 20.0886C2.3781 20.6324 2.56872 21.2199 3.02966 21.5543ZM11.5406 20.7652H11.5437C12.1125 20.7652 12.6125 20.4011 12.7875 19.8589L14.9234 13.2402L17.0594 19.8589C17.2344 20.4011 17.7344 20.7652 18.3031 20.7652H18.3062L25.2609 20.7511L19.6265 24.8277C19.164 25.1621 18.9734 25.7511 19.15 26.2933L21.3125 32.9043L15.6937 28.8058C15.464 28.6371 15.1937 28.5543 14.9234 28.5543C14.6531 28.5543 14.3828 28.6386 14.1531 28.8058L8.53435 32.9043L10.6968 26.2933C10.8734 25.7511 10.6828 25.1621 10.2203 24.8277L4.58591 20.7511L11.5406 20.7652ZM14.9234 39.248C11.0062 39.248 7.81872 42.4355 7.81872 46.3527C7.81872 50.2699 11.0062 53.4574 14.9234 53.4574C18.8406 53.4574 22.0281 50.2699 22.0281 46.3527C22.0281 42.4355 18.8406 39.248 14.9234 39.248ZM14.9234 51.8933C11.8672 51.8933 9.38122 49.4074 9.38122 46.3511C9.38122 43.2949 11.8672 40.809 14.9234 40.809C17.9797 40.809 20.4656 43.2949 20.4656 46.3511C20.4656 49.4074 17.9797 51.8933 14.9234 51.8933ZM63.0765 39.248C59.1594 39.248 55.9719 42.4355 55.9719 46.3527C55.9719 50.2699 59.1594 53.4574 63.0765 53.4574C66.9937 53.4574 70.1812 50.2699 70.1812 46.3527C70.1812 42.4355 66.9937 39.248 63.0765 39.248ZM63.0765 51.8933C60.0203 51.8933 57.5344 49.4074 57.5344 46.3511C57.5344 43.2949 60.0203 40.809 63.0765 40.809C66.1328 40.809 68.6187 43.2949 68.6187 46.3511C68.6187 49.4074 66.1312 51.8933 63.0765 51.8933ZM77.2344 66.6199C76.7406 63.248 75.0484 60.1355 72.4719 57.8543C69.8719 55.5527 66.5391 54.2558 63.0875 54.2043C63.0797 54.2043 63.0719 54.2043 63.0641 54.2043C58.5109 54.273 54.3062 56.4621 51.6109 60.1136C51.0594 59.448 50.4578 58.8199 49.8031 58.2402C46.8125 55.5933 42.9812 54.1027 39.0125 54.0433C39.0047 54.0433 38.9969 54.0433 38.989 54.0433C35.0203 54.1027 31.189 55.5933 28.1984 58.2402C27.5437 58.8199 26.9422 59.448 26.3906 60.1136C23.6953 56.4621 19.489 54.273 14.9375 54.2043C14.9297 54.2043 14.9219 54.2043 14.914 54.2043C11.4625 54.2558 8.12966 55.5527 5.52966 57.8543C2.9531 60.1355 1.26091 63.248 0.767159 66.6199C0.529659 68.2355 1.19372 69.7496 2.54216 70.6699C6.13904 73.1262 11.4828 74.2449 14.9265 74.2449C17.0859 74.2449 20.7172 73.748 24.0875 72.3699C24.2828 72.5574 24.4937 72.7324 24.725 72.8902C28.8703 75.7215 35.0312 77.0105 39.0015 77.0105C42.9719 77.0105 49.1328 75.7215 53.2781 72.8902C53.5094 72.7324 53.7219 72.5558 53.9156 72.3699C57.2859 73.748 60.9172 74.2449 63.0765 74.2449C66.5203 74.2449 71.8641 73.1262 75.4609 70.6699C76.8078 69.748 77.4719 68.234 77.2344 66.6199ZM3.42185 69.3793C2.5656 68.7949 2.16247 67.8715 2.31247 66.8465C3.22341 60.6293 8.64529 55.8683 14.925 55.7668C19.1375 55.834 23.0187 57.9386 25.4062 61.4246C24.0125 63.4871 23.0844 65.8418 22.7219 68.3183C22.5781 69.2949 22.7297 70.2387 23.1328 71.0637C20.2469 72.1762 17.0078 72.6808 14.925 72.6808C12.2453 72.6824 6.97029 71.8027 3.42185 69.3793ZM52.3953 71.5996C48.2609 74.423 42.1203 75.448 39 75.448C35.8797 75.448 29.739 74.423 25.6047 71.5996C24.5875 70.9058 24.0875 69.7636 24.2656 68.5449C25.3312 61.2824 31.664 55.7215 38.9984 55.6043C46.3344 55.7215 52.6672 61.2808 53.7312 68.5449C53.9125 69.7636 53.4109 70.9058 52.3953 71.5996ZM74.5781 69.3793C71.0297 71.8027 65.7547 72.6824 63.075 72.6824C60.9937 72.6824 57.7531 72.1777 54.8672 71.0652C55.2703 70.2386 55.4219 69.2965 55.2781 68.3199C54.9156 65.8433 53.9875 63.4886 52.5937 61.4261C54.9812 57.9402 58.8625 55.8355 63.075 55.7683C69.3547 55.8683 74.7766 60.6293 75.6875 66.8465C75.8391 67.8715 75.4344 68.7949 74.5781 69.3793ZM39 36.4808C34.5297 36.4808 30.8937 40.1168 30.8937 44.5871C30.8937 49.0574 34.5297 52.6933 39 52.6933C43.4703 52.6933 47.1062 49.0574 47.1062 44.5871C47.1062 40.1168 43.4703 36.4808 39 36.4808ZM39 51.1308C35.3922 51.1308 32.4562 48.1949 32.4562 44.5871C32.4562 40.9793 35.3922 38.0433 39 38.0433C42.6078 38.0433 45.5437 40.9793 45.5437 44.5871C45.5437 48.1949 42.6078 51.1308 39 51.1308Z" fill="#132547"/>
</svg>
