<svg width="207" height="39" viewBox="0 0 207 39" fill="none" xmlns="http://www.w3.org/2000/svg">
<path d="M19.0599 11.924C20.4756 13.3396 21.2943 15.1248 21.5274 16.9698L32.2046 6.29257L27.4999 1.58789L18.1133 10.9745L19.0627 11.924H19.0599Z" fill="white"/>
<path d="M19.0598 24.1991L18.1104 25.1486L27.497 34.5352L32.2016 29.8305L21.5244 19.1533C21.2913 20.9982 20.4726 22.7863 19.057 24.1991H19.0598Z" fill="white"/>
<path d="M12.3459 26.8967C13.1959 26.0468 13.7275 25.0007 13.9435 23.9034C13.9435 23.892 13.9492 23.8778 13.9521 23.8664C13.9748 23.747 13.989 23.6276 14.0032 23.5082C14.0999 22.6639 14.0203 21.8055 13.7616 20.9896H13.7758C13.5029 20.1311 13.0282 19.3238 12.3488 18.6415L11.7717 18.0645L0.00292969 29.8332L4.7076 34.5379L12.3488 26.8967H12.3459Z" fill="white"/>
<path d="M17.0505 13.9338L15.9334 12.8166L7.68099 4.5642L7.05843 3.94165L4.70468 1.58789L0 6.29257L1.22236 7.51493L2.35376 8.64632L11.7688 18.0614L12.3459 18.6384C14.6257 20.9183 14.6257 24.6138 12.3459 26.8936L15.9334 23.3061L17.0505 22.189C19.3304 19.9091 19.3304 16.2136 17.0505 13.9338Z" fill="white"/>
<path d="M17.0505 13.9338L15.9334 12.8166L7.68099 4.5642L7.05843 3.94165L4.70468 1.58789L0 6.29257L1.22236 7.51493L2.35376 8.64632L11.7688 18.0614L12.3459 18.6384C14.6257 20.9183 14.6257 24.6138 12.3459 26.8936L15.9334 23.3061L17.0505 22.189C19.3304 19.9091 19.3304 16.2136 17.0505 13.9338Z" fill="white"/>
<path d="M73.9213 8.59277C67.0135 8.59277 61.9648 13.2378 61.9648 19.7817C61.9648 26.3256 67.0135 30.9705 73.9213 30.9705C80.829 30.9705 85.835 26.3256 85.835 19.7817C85.835 13.2378 80.8262 8.59277 73.9213 8.59277ZM73.9213 25.7968C70.7715 25.7968 68.3467 23.534 68.3467 19.7788C68.3467 16.0236 70.7687 13.7608 73.9213 13.7608C77.0738 13.7608 79.456 16.0236 79.456 19.7788C79.456 23.534 77.0738 25.7968 73.9213 25.7968Z" fill="white"/>
<path d="M116.994 25.9761C115.302 25.9761 114.296 24.9698 114.296 23.1192V17.377H108.017V23.1988C108.017 28.3526 110.996 30.9679 116.11 30.9679C118.043 30.9679 119.933 30.5245 121.224 29.6006L119.532 25.1716C118.847 25.6947 117.921 25.9761 116.997 25.9761H116.994Z" fill="white"/>
<path d="M119.692 14.5787V9.46755H114.297V4.19434H108.017V9.46755H102.809C99.469 9.46755 96.8253 9.74898 95.296 11.8441V8.98713H89.2979V30.6457H95.5774V20.4205C95.5774 16.273 97.88 14.8744 101.334 14.6612C101.868 14.6271 102.437 14.5844 102.809 14.5816H119.692V14.5787Z" fill="white"/>
<path d="M48.5562 8.5926C45.6481 8.5926 43.3058 9.52216 41.7309 11.4182V8.91383H35.7129V38.4779H42.0123V28.3409C43.627 30.1176 45.85 30.9647 48.5562 30.9647C54.6538 30.9647 59.3812 26.604 59.3812 19.7758C59.3812 12.9476 54.6567 8.58691 48.5562 8.58691V8.5926ZM47.4675 25.7966C44.3178 25.7966 41.9356 23.5339 41.9356 19.7786C41.9356 16.0234 44.3178 13.7606 47.4675 13.7606C50.6172 13.7606 53.0022 16.0234 53.0022 19.7786C53.0022 23.5339 50.62 25.7966 47.4675 25.7966Z" fill="white"/>
<path d="M130.324 10.4347C130.324 8.66366 131.813 7.21389 135.679 7.21389C138.175 7.21389 140.873 7.93878 143.488 9.42835L145.501 4.47636C142.883 2.82475 139.261 1.98047 135.719 1.98047C127.708 1.98047 123.842 5.96594 123.842 10.7559C123.842 21.2227 140.227 17.6011 140.227 22.8743C140.227 24.6055 138.658 25.8933 134.792 25.8933C131.409 25.8933 127.867 24.6851 125.494 22.9539L123.279 27.8661C125.775 29.7992 130.284 31.1267 134.752 31.1267C142.803 31.1267 146.709 27.1014 146.709 22.3911C146.709 12.0436 130.324 15.6283 130.324 10.4347Z" fill="white"/>
<path d="M161.039 8.66406C154.154 8.66406 149.122 13.2948 149.122 19.816C149.122 26.3372 154.154 30.9679 161.039 30.9679C167.924 30.9679 172.915 26.3372 172.915 19.816C172.915 13.2948 167.924 8.66406 161.039 8.66406ZM161.039 25.8141C157.897 25.8141 155.484 23.5598 155.484 19.816C155.484 16.0721 157.9 13.8179 161.039 13.8179C164.177 13.8179 166.554 16.0721 166.554 19.816C166.554 23.5598 164.177 25.8141 161.039 25.8141Z" fill="white"/>
<path d="M199.728 14.3007H205.123V9.46814H199.728V4.19493H193.448V9.46814H183.988V8.54142C183.988 6.40655 184.994 5.40023 186.848 5.40023C187.814 5.40023 188.698 5.68166 189.383 6.16492L191.035 1.61659C189.867 0.812108 188.016 0.448242 186.245 0.448242C180.85 0.448242 177.87 3.62923 177.87 8.49878V9.4653H174.527V14.2979H177.87V30.6434H184.15V14.2979H199.731L199.728 14.3007Z" fill="white"/>
<path d="M204.961 25.1709C204.276 25.694 203.352 25.9754 202.425 25.9754C200.734 25.9754 199.728 24.9691 199.728 23.1185V17.0977H193.448V23.2009C193.448 28.3548 196.427 30.9701 201.541 30.9701C203.474 30.9701 205.365 30.5266 206.655 29.6027L204.964 25.1738L204.961 25.1709Z" fill="white"/>
</svg>
