<svg width="17" height="17" viewBox="0 0 17 17" fill="none" xmlns="http://www.w3.org/2000/svg">
<path d="M8.81348 0.478027C6.64014 0.478027 6.36881 0.488027 5.51548 0.526027C4.66348 0.566027 4.08348 0.700027 3.57348 0.898027C3.04748 1.10203 2.60081 1.37603 2.15614 1.82069C1.71148 2.26536 1.43681 2.71136 1.23348 3.23803C1.03548 3.74803 0.90081 4.32803 0.861477 5.18003C0.821477 6.03336 0.813477 6.30469 0.813477 8.47803C0.813477 10.6514 0.823477 10.9227 0.861477 11.776C0.901477 12.6274 1.03548 13.208 1.23348 13.718C1.43434 14.2519 1.74921 14.7356 2.15614 15.1354C2.55566 15.5426 3.03941 15.8575 3.57348 16.058C4.08414 16.2554 4.66414 16.3907 5.51548 16.43C6.36881 16.47 6.64014 16.478 8.81348 16.478C10.9868 16.478 11.2581 16.468 12.1115 16.43C12.9628 16.39 13.5435 16.2554 14.0535 16.058C14.5873 15.8569 15.0709 15.5421 15.4708 15.1354C15.8782 14.736 16.1931 14.2522 16.3935 13.718C16.5908 13.208 16.7261 12.6274 16.7655 11.776C16.8055 10.9227 16.8135 10.6514 16.8135 8.47803C16.8135 6.30469 16.8035 6.03336 16.7655 5.18003C16.7255 4.32869 16.5908 3.74736 16.3935 3.23803C16.1925 2.70417 15.8777 2.22051 15.4708 1.82069C15.0716 1.41312 14.5878 1.09815 14.0535 0.898027C13.5435 0.700027 12.9628 0.565361 12.1115 0.526027C11.2581 0.486027 10.9868 0.478027 8.81348 0.478027ZM8.81348 1.91803C10.9488 1.91803 11.2035 1.92869 12.0468 1.96536C12.8268 2.00203 13.2501 2.13136 13.5315 2.24203C13.9061 2.38669 14.1715 2.56003 14.4528 2.83936C14.7321 3.11936 14.9055 3.38536 15.0501 3.76003C15.1595 4.04136 15.2901 4.46469 15.3255 5.24469C15.3635 6.08869 15.3721 6.34203 15.3721 8.47803C15.3721 10.614 15.3621 10.868 15.3228 11.7114C15.2821 12.4914 15.1521 12.9147 15.0421 13.196C14.912 13.5432 14.7074 13.8577 14.4428 14.1174C14.1842 14.3822 13.87 14.5863 13.5228 14.7147C13.2428 14.824 12.8128 14.9547 12.0328 14.99C11.1835 15.028 10.9335 15.0367 8.79348 15.0367C6.65281 15.0367 6.40281 15.0267 5.55414 14.9874C4.77348 14.9467 4.34348 14.8167 4.06348 14.7067C3.71608 14.5782 3.40193 14.3734 3.14414 14.1074C2.87653 13.8505 2.67129 13.5358 2.54414 13.1874C2.43414 12.9074 2.30481 12.4774 2.26414 11.6974C2.23414 10.8574 2.22348 10.598 2.22348 8.46803C2.22348 6.33736 2.23414 6.07736 2.26414 5.22736C2.30481 4.44736 2.43414 4.01803 2.54414 3.73803C2.68414 3.35803 2.86348 3.09803 3.14414 2.81736C3.42348 2.53803 3.68414 2.35803 4.06348 2.21869C4.34348 2.10803 4.76414 1.97803 5.54414 1.93803C6.39414 1.90803 6.64414 1.89803 8.78348 1.89803L8.81348 1.91803ZM8.81348 4.37003C8.27401 4.37003 7.73982 4.47628 7.24141 4.68273C6.74301 4.88918 6.29014 5.19177 5.90868 5.57323C5.52722 5.9547 5.22463 6.40756 5.01818 6.90596C4.81173 7.40437 4.70548 7.93856 4.70548 8.47803C4.70548 9.0175 4.81173 9.55169 5.01818 10.0501C5.22463 10.5485 5.52722 11.0014 5.90868 11.3828C6.29014 11.7643 6.74301 12.0669 7.24141 12.2733C7.73982 12.4798 8.27401 12.586 8.81348 12.586C9.90299 12.586 10.9479 12.1532 11.7183 11.3828C12.4887 10.6124 12.9215 9.56754 12.9215 8.47803C12.9215 7.38852 12.4887 6.34363 11.7183 5.57323C10.9479 4.80283 9.90299 4.37003 8.81348 4.37003ZM8.81348 11.1447C7.34014 11.1447 6.14681 9.95136 6.14681 8.47803C6.14681 7.00469 7.34014 5.81136 8.81348 5.81136C10.2868 5.81136 11.4801 7.00469 11.4801 8.47803C11.4801 9.95136 10.2868 11.1447 8.81348 11.1447ZM14.0441 4.20803C14.0349 4.45644 13.9297 4.6916 13.7507 4.86407C13.5716 5.03655 13.3327 5.13291 13.0841 5.13291C12.8356 5.13291 12.5966 5.03655 12.4176 4.86407C12.2386 4.6916 12.1334 4.45644 12.1241 4.20803C12.1241 3.95342 12.2253 3.70924 12.4053 3.52921C12.5854 3.34917 12.8295 3.24803 13.0841 3.24803C13.3388 3.24803 13.5829 3.34917 13.763 3.52921C13.943 3.70924 14.0441 3.95342 14.0441 4.20803Z" fill="white"/>
</svg>
