<svg width="20" height="17" viewBox="0 0 20 17" fill="none" xmlns="http://www.w3.org/2000/svg">
<path d="M19.7356 2.34983C19.6072 2.62097 19.3681 2.96346 19.0185 3.37727C18.6689 3.79109 18.2372 4.15499 17.7235 4.46893C17.7378 4.58311 17.7485 4.69012 17.7556 4.79001C17.811 6.32796 17.4426 7.92363 16.9315 9.25298C15.9408 11.7246 14.4227 13.7138 12.2545 15.0645C9.99339 16.3614 7.36009 16.6373 4.93391 16.4023C3.32322 16.2173 1.73571 15.6913 0.535156 14.7006C2.73093 14.9631 4.78013 14.2161 6.40016 13.0096C4.60057 13.0551 3.29304 11.7533 2.67568 10.2483C2.95398 10.3212 3.2451 10.3124 3.51048 10.2911C3.83715 10.2604 4.14723 10.2298 4.45231 10.1627C3.30482 9.79248 2.30076 9.11189 1.77667 8.0864C1.46926 7.43663 1.33045 6.81786 1.32717 6.11712C1.86486 6.40022 2.51165 6.67613 3.1038 6.65224C2.20951 5.89467 1.49257 4.92649 1.35929 3.81605C1.27514 2.89017 1.50683 2.045 1.84091 1.25814C3.17865 2.72833 4.67961 3.93823 6.4109 4.68296C7.59489 5.16781 8.77553 5.42709 9.99627 5.43213C9.85536 4.34179 9.96493 3.28729 10.4779 2.3926C11.0816 1.43069 11.9624 0.872595 12.9502 0.594556C14.3636 0.232117 15.7422 0.74408 16.6105 1.72903C17.5469 1.62789 18.4438 1.21249 19.1577 0.787201C18.8544 1.70578 18.2637 2.61911 17.4025 3.05615C18.2225 2.90433 19.0049 2.66159 19.7356 2.34983Z" fill="white"/>
</svg>
