<svg width="16" height="17" viewBox="0 0 16 17" fill="none" xmlns="http://www.w3.org/2000/svg">
<path d="M9.93099 11.5852V13.4691C9.93099 13.8679 9.79557 14.0673 9.52474 14.0673C9.36502 14.0673 9.20877 14.0018 9.05599 13.8709V11.1834C9.20877 11.0524 9.36502 10.987 9.52474 10.987C9.79557 10.987 9.93099 11.1864 9.93099 11.5852ZM13.4518 11.5941V12.0048H12.5143V11.5941C12.5143 11.1893 12.6706 10.987 12.9831 10.987C13.2956 10.987 13.4518 11.1893 13.4518 11.5941ZM3.38932 9.64767H4.50391V8.80838H1.25391V9.64767H2.34766V14.728H3.38932V9.64767ZM6.38932 14.728H7.31641V10.3173H6.38932V13.6923C6.18099 13.9423 5.98307 14.0673 5.79557 14.0673C5.67057 14.0673 5.59766 14.0048 5.57682 13.8798C5.56988 13.862 5.56641 13.7578 5.56641 13.5673V10.3173H4.63932V13.8084C4.63932 14.1001 4.6671 14.3173 4.72266 14.4602C4.80599 14.6804 5.00738 14.7905 5.32682 14.7905C5.66016 14.7905 6.01432 14.609 6.38932 14.2459V14.728ZM10.8581 13.4066V11.6477C10.8581 11.2131 10.8268 10.9185 10.7643 10.7637C10.6463 10.4304 10.3997 10.2637 10.0247 10.2637C9.67752 10.2637 9.3546 10.4245 9.05599 10.7459V8.80838H8.12891V14.728H9.05599V14.2995C9.36849 14.6268 9.69141 14.7905 10.0247 14.7905C10.3997 14.7905 10.6463 14.6268 10.7643 14.2995C10.8268 14.1387 10.8581 13.8411 10.8581 13.4066ZM14.3789 13.3173V13.2012H13.431C13.431 13.5048 13.424 13.6864 13.4102 13.7459C13.3615 13.9602 13.2227 14.0673 12.9935 14.0673C12.674 14.0673 12.5143 13.862 12.5143 13.4512V12.6745H14.3789V11.7548C14.3789 11.2846 14.2852 10.9393 14.0977 10.7191C13.8268 10.4155 13.4588 10.2637 12.9935 10.2637C12.5213 10.2637 12.1497 10.4155 11.8789 10.7191C11.6845 10.9393 11.5872 11.2846 11.5872 11.7548V13.2995C11.5872 13.7697 11.6879 14.1149 11.8893 14.3352C12.1602 14.6387 12.5352 14.7905 13.0143 14.7905C13.5143 14.7905 13.8893 14.6328 14.1393 14.3173C14.2643 14.1566 14.3372 13.9959 14.3581 13.8352C14.372 13.7816 14.3789 13.609 14.3789 13.3173ZM8.04557 5.16553V3.29053C8.04557 2.87981 7.89627 2.67446 7.59766 2.67446C7.29905 2.67446 7.14974 2.87981 7.14974 3.29053V5.16553C7.14974 5.58219 7.29905 5.79053 7.59766 5.79053C7.89627 5.79053 8.04557 5.58219 8.04557 5.16553ZM15.5352 11.8709C15.5352 13.2637 15.4449 14.3054 15.2643 14.9959C15.1671 15.3471 14.9657 15.6417 14.6602 15.8798C14.3546 16.1179 14.0004 16.2548 13.5977 16.2905C12.3199 16.4155 10.3928 16.478 7.81641 16.478C5.24002 16.478 3.31293 16.4155 2.03516 16.2905C1.63238 16.2548 1.27648 16.1179 0.967448 15.8798C0.65842 15.6417 0.458767 15.3471 0.36849 14.9959C0.187934 14.3292 0.0976562 13.2876 0.0976562 11.8709C0.0976562 10.478 0.187934 9.43636 0.36849 8.74588C0.465712 8.39469 0.667101 8.10005 0.972656 7.86196C1.27821 7.62386 1.63585 7.48398 2.04557 7.44231C3.31641 7.32327 5.24002 7.26374 7.81641 7.26374C10.3928 7.26374 12.3199 7.32327 13.5977 7.44231C14.0004 7.48398 14.3563 7.62386 14.6654 7.86196C14.9744 8.10005 15.174 8.39469 15.2643 8.74588C15.4449 9.41255 15.5352 10.4542 15.5352 11.8709ZM5.13932 0.478027H6.20182L4.94141 4.04053V6.46017H3.89974V4.04053C3.80252 3.60005 3.59071 2.9691 3.26432 2.14767C3.00738 1.53457 2.78168 0.978027 2.58724 0.478027H3.69141L4.43099 2.82624L5.13932 0.478027ZM8.99349 3.45124V5.01374C8.99349 5.49588 8.89627 5.84707 8.70182 6.06731C8.43793 6.37088 8.06988 6.52267 7.59766 6.52267C7.13238 6.52267 6.7678 6.37088 6.50391 6.06731C6.30946 5.84112 6.21224 5.48993 6.21224 5.01374V3.45124C6.21224 2.97505 6.30946 2.62684 6.50391 2.4066C6.7678 2.10303 7.13238 1.95124 7.59766 1.95124C8.06988 1.95124 8.43793 2.10303 8.70182 2.4066C8.89627 2.62684 8.99349 2.97505 8.99349 3.45124ZM12.4831 2.00481V6.46017H11.5352V5.9691C11.1671 6.33815 10.8095 6.52267 10.4622 6.52267C10.1428 6.52267 9.93793 6.41255 9.84766 6.19231C9.7921 6.04946 9.76432 5.82624 9.76432 5.52267V2.00481H10.7122V5.2816C10.7122 5.47803 10.7157 5.58219 10.7227 5.5941C10.7435 5.72505 10.8164 5.79053 10.9414 5.79053C11.1289 5.79053 11.3268 5.66255 11.5352 5.4066V2.00481H12.4831Z" fill="white"/>
</svg>
